<svg width="489" height="440" viewBox="0 0 489 440" fill="none" xmlns="http://www.w3.org/2000/svg">
<path d="M482.179 416.215L457.569 439.842H202.11L97.2687 235.179L43.7159 130.633L5.71707 56.4076L5.91396 5.90656L66.5546 125.022L97.2687 185.269L214.908 416.215H482.179Z" fill="#D1D3D4"/>
<path d="M482.179 416.215H214.908L5.91396 5.90656H273.186L482.179 416.215Z" fill="#3F8FD5"/>
<path d="M266.688 410.309H218.452L165.982 307.141H214.12L266.688 410.309Z" fill="#2D7CAD"/>
<path d="M405 410.309H349.479L297.009 307.141H352.432L405 410.309Z" fill="#2D7CAD"/>
<path d="M413.959 295.328H359.717L317.583 212.636H371.825L413.959 295.328Z" fill="#2D7CAD"/>
<path d="M346.427 295.328H291.004L248.87 212.636H304.294L346.427 295.328Z" fill="#2D7CAD"/>
<path d="M175.432 94.5049H119.123L76.9895 11.8131H133.299L175.432 94.5049Z" fill="#2D7CAD"/>
<path d="M229.576 200.823H173.266L125.128 106.318H181.437L229.576 200.823Z" fill="#2D7CAD"/>
<path d="M311.677 94.5049H257.435L215.301 11.8131H269.543L311.677 94.5049Z" fill="#2D7CAD"/>
<path d="M0.893374 2.85484C1.8778 1.08287 3.84669 0 5.91398 0H273.186C275.45 0 277.419 1.27975 278.502 3.24861L487.397 413.557C488.381 415.428 488.283 417.594 487.2 419.366C486.117 421.039 484.247 422.122 482.179 422.122H214.908C212.643 422.122 210.675 420.941 209.592 418.972L0.598059 8.66295C-0.287925 6.79254 -0.189494 4.6268 0.893374 2.85484V2.85484ZM111.838 200.823H159.977L111.838 106.318H63.6998L111.838 200.823ZM159.977 295.328H208.115L165.982 212.636H117.843L159.977 295.328ZM336.287 410.309L283.719 307.141H227.41L279.978 410.309H336.287ZM405 410.309L352.432 307.141H297.009L349.577 410.309H405ZM371.825 212.636H317.583L359.717 295.328H413.959L371.825 212.636ZM317.682 106.318H263.44L311.578 200.823H365.82L317.682 106.318ZM146.588 11.8131L188.722 94.5049H244.145L202.012 11.8131H146.588ZM194.727 106.318L242.865 200.823H298.288L250.15 106.318H194.727ZM304.293 212.636H248.87L291.004 295.328H346.427L304.293 212.636ZM277.714 295.328L235.581 212.636H179.271L221.405 295.328H277.714ZM173.266 200.823H229.576L181.437 106.318H125.128L173.266 200.823ZM175.432 94.5049L133.299 11.8131H76.9895L119.123 94.5049H175.432ZM269.543 11.8131H215.301L257.435 94.5049H311.677L269.543 11.8131ZM419.964 307.141H365.722L418.29 410.309H472.532L419.964 307.141ZM218.452 410.309H266.688L214.12 307.141H165.982L218.452 410.309ZM57.5963 94.5049H105.833L63.6998 11.8131H15.5613L57.5963 94.5049Z" fill="#2670A8"/>
</svg>
