<svg width="223" height="378" viewBox="0 0 223 378" fill="none" xmlns="http://www.w3.org/2000/svg">
<path d="M220.627 150.435C218.68 146.899 214.96 144.703 210.926 144.703H122.235L155.22 13.799C156.55 8.51072 153.857 3.04891 148.85 0.896823C143.876 -1.24419 138.025 0.550569 135.115 5.15745L111.258 43.6706L2.22447 216.307C0.0723806 219.724 -0.0575587 224.039 1.88929 227.565C3.83614 231.101 7.55634 233.297 11.5903 233.297H100.282L67.2966 364.201C65.9662 369.489 68.6595 374.951 73.6665 377.103C78.6669 379.24 84.4808 377.456 87.4015 372.842L111.258 335.067L220.292 161.693C222.443 158.276 222.573 153.96 220.627 150.435V150.435Z" fill="#FED843"/>
<path d="M220.627 150.435C218.68 146.899 214.96 144.703 210.926 144.703H122.235L155.22 13.799C156.551 8.51072 153.857 3.04891 148.85 0.896823C143.876 -1.24419 138.025 0.550569 135.115 5.15745L111.258 43.6706V335.067L220.292 161.692C222.444 158.276 222.574 153.96 220.627 150.435V150.435Z" fill="#FABE2C"/>
</svg>
