<svg xmlns="http://www.w3.org/2000/svg" version="1.1" xmlns:xlink="http://www.w3.org/1999/xlink" xmlns:svgjs="http://svgjs.com/svgjs" width="512" height="512" x="0" y="0" viewBox="0 0 60 60" style="enable-background:new 0 0 512 512" xml:space="preserve"><g><path xmlns="http://www.w3.org/2000/svg" d="M30,52A22,22,0,1,0,8,30,22.025,22.025,0,0,0,30,52Zm0-42A20,20,0,1,1,10,30,20.023,20.023,0,0,1,30,10Z" fill="#000000" data-original="#000000"/><path xmlns="http://www.w3.org/2000/svg" d="M1.8,25.193A2.7,2.7,0,0,0,.118,27.426a28.248,28.248,0,0,0,0,5.147,2.7,2.7,0,0,0,1.688,2.236l2.888,1.154a25.762,25.762,0,0,0,3.2,7.709L6.671,46.534a2.642,2.642,0,0,0,.393,2.784,29.779,29.779,0,0,0,3.618,3.618,2.644,2.644,0,0,0,2.782.394l2.864-1.223a25.762,25.762,0,0,0,7.709,3.2L25.193,58.2a2.706,2.706,0,0,0,2.234,1.685c.879.078,1.775.116,2.647.116s1.721-.038,2.5-.116a2.708,2.708,0,0,0,2.235-1.689l1.154-2.888a25.762,25.762,0,0,0,7.709-3.2l2.862,1.222a2.642,2.642,0,0,0,2.784-.393,29.686,29.686,0,0,0,3.617-3.617,2.642,2.642,0,0,0,.395-2.783l-1.223-2.864a25.762,25.762,0,0,0,3.2-7.709L58.2,34.807a2.706,2.706,0,0,0,1.685-2.234,28.482,28.482,0,0,0,0-5.152,2.707,2.707,0,0,0-1.688-2.23l-2.888-1.154a25.762,25.762,0,0,0-3.2-7.709l1.222-2.862a2.645,2.645,0,0,0-.393-2.784,29.761,29.761,0,0,0-3.617-3.617,2.644,2.644,0,0,0-2.783-.4L43.672,7.893a25.762,25.762,0,0,0-7.709-3.2L34.807,1.8A2.7,2.7,0,0,0,32.574.118a28.335,28.335,0,0,0-5.147,0,2.7,2.7,0,0,0-2.236,1.688L24.037,4.694a25.762,25.762,0,0,0-7.709,3.2L13.466,6.671a2.649,2.649,0,0,0-2.785.394,29.831,29.831,0,0,0-3.617,3.617,2.644,2.644,0,0,0-.394,2.782l1.223,2.864a25.762,25.762,0,0,0-3.2,7.709Zm4.731-.214a23.819,23.819,0,0,1,3.324-8.016,1,1,0,0,0,.081-.937L8.509,12.677a.664.664,0,0,1,.086-.708,27.907,27.907,0,0,1,3.387-3.385.656.656,0,0,1,.7-.074l3.347,1.428a1,1,0,0,0,.937-.081,23.819,23.819,0,0,1,8.016-3.324,1,1,0,0,0,.72-.607l1.348-3.374a.7.7,0,0,1,.567-.443,26.33,26.33,0,0,1,4.783,0,.7.7,0,0,1,.554.438L34.3,5.926a1,1,0,0,0,.72.607,23.819,23.819,0,0,1,8.016,3.324,1,1,0,0,0,.937.081l3.349-1.429a.666.666,0,0,1,.708.086,27.838,27.838,0,0,1,3.385,3.387.66.66,0,0,1,.074.7l-1.428,3.347a1,1,0,0,0,.081.937,23.819,23.819,0,0,1,3.324,8.016,1,1,0,0,0,.607.72l3.374,1.348a.7.7,0,0,1,.443.557v.01a26.5,26.5,0,0,1,0,4.782.7.7,0,0,1-.439.555L54.074,34.3a1,1,0,0,0-.607.72,23.819,23.819,0,0,1-3.324,8.016,1,1,0,0,0-.081.937l1.429,3.349a.66.66,0,0,1-.087.708,27.765,27.765,0,0,1-3.387,3.386.651.651,0,0,1-.7.073l-3.347-1.428a1,1,0,0,0-.937.081,23.819,23.819,0,0,1-8.016,3.324,1,1,0,0,0-.72.607l-1.348,3.374a.7.7,0,0,1-.567.444,26.5,26.5,0,0,1-4.782,0,.7.7,0,0,1-.555-.439L25.7,54.074a1,1,0,0,0-.72-.607,23.819,23.819,0,0,1-8.016-3.324.994.994,0,0,0-.937-.081l-3.349,1.429a.665.665,0,0,1-.708-.086,27.854,27.854,0,0,1-3.386-3.388.658.658,0,0,1-.073-.7l1.428-3.347a1,1,0,0,0-.081-.937,23.819,23.819,0,0,1-3.324-8.016,1,1,0,0,0-.607-.72L2.552,32.953a.7.7,0,0,1-.443-.567,26.241,26.241,0,0,1,0-4.783.7.7,0,0,1,.438-.554L5.926,25.7A1,1,0,0,0,6.533,24.979Z" fill="#000000" data-original="#000000"/><path xmlns="http://www.w3.org/2000/svg" d="M21.111,34h6.513L24.976,45.174a2.282,2.282,0,0,0,2.2,2.83,2.228,2.228,0,0,0,1.8-.948L40.582,30.4a2.136,2.136,0,0,0,.185-2.24A2.1,2.1,0,0,0,38.889,27H32.376l2.648-11.174a2.254,2.254,0,0,0-1.238-2.61,2.2,2.2,0,0,0-2.765.728L19.418,30.6a2.136,2.136,0,0,0-.185,2.24A2.1,2.1,0,0,0,21.111,34Zm-.067-2.236,11.6-16.656A.22.22,0,0,1,32.824,15a.274.274,0,0,1,.114.028.256.256,0,0,1,.143.33L30.139,27.77A1,1,0,0,0,31.111,29h7.778a.1.1,0,0,1,.093.063.149.149,0,0,1-.026.173l-11.6,16.656a.207.207,0,0,1-.291.081.256.256,0,0,1-.143-.33L29.861,33.23A1,1,0,0,0,28.889,32H21.111a.1.1,0,0,1-.093-.063A.149.149,0,0,1,21.044,31.764Z" fill="#000000" data-original="#000000"/></g></svg>