<svg xmlns="http://www.w3.org/2000/svg" version="1.1" xmlns:xlink="http://www.w3.org/1999/xlink" xmlns:svgjs="http://svgjs.com/svgjs" width="512" height="512" x="0" y="0" viewBox="0 0 512 512" style="enable-background:new 0 0 512 512" xml:space="preserve"><g><g xmlns="http://www.w3.org/2000/svg"><path d="m256 254.799c-14.975-28.958-45.213-48.799-80-48.799h-20c-5.523 0-10 4.477-10 10v20c0 49.626 40.374 90 90 90h10v50c0 5.523 4.477 10 10 10s10-4.477 10-10v-50h10c49.626 0 90-40.374 90-90v-20c0-5.523-4.477-10-10-10h-20c-34.787 0-65.025 19.841-80 48.799zm-90-18.799v-10h10c37.158 0 67.632 29.105 69.856 65.714l-22.785-22.785c-3.905-3.905-10.237-3.905-14.143 0s-3.905 10.237 0 14.143l22.785 22.785c-36.608-2.225-65.713-32.699-65.713-69.857zm180 0c0 37.158-29.105 67.632-65.714 69.856l22.785-22.785c3.905-3.905 3.905-10.237 0-14.143s-10.237-3.905-14.143 0l-22.785 22.785c2.225-36.608 32.699-65.713 69.857-65.713h10z" fill="#000000" data-original="#000000" class=""/><path d="m36 226c-5.523 0-10 4.477-10 10s4.477 10 10 10h40c5.523 0 10-4.477 10-10s-4.477-10-10-10z" fill="#000000" data-original="#000000" class=""/><path d="m486 236c0-5.523-4.477-10-10-10h-40c-5.523 0-10 4.477-10 10s4.477 10 10 10h40c5.523 0 10-4.477 10-10z" fill="#000000" data-original="#000000" class=""/><path d="m246 56c0 5.523 4.477 10 10 10s10-4.477 10-10v-46c0-5.523-4.477-10-10-10s-10 4.477-10 10z" fill="#000000" data-original="#000000" class=""/><path d="m404.489 398.631c3.905 3.905 10.237 3.905 14.143 0 3.905-3.905 3.905-10.237 0-14.143l-28.28-28.28c-3.905-3.905-10.237-3.905-14.143 0-3.905 3.905-3.905 10.237 0 14.143z" fill="#000000" data-original="#000000" class=""/><path d="m93.369 73.369c-3.905 3.905-3.905 10.237 0 14.143l28.28 28.28c3.905 3.905 10.237 3.905 14.143 0 3.905-3.905 3.905-10.237 0-14.143l-28.28-28.28c-3.906-3.906-10.238-3.906-14.143 0z" fill="#000000" data-original="#000000" class=""/><path d="m418.631 73.369c-3.905-3.905-10.237-3.905-14.143 0l-28.28 28.28c-3.905 3.905-3.905 10.237 0 14.143 3.905 3.905 10.237 3.905 14.143 0l28.28-28.28c3.905-3.906 3.905-10.238 0-14.143z" fill="#000000" data-original="#000000" class=""/><path d="m93.369 398.631c3.905 3.905 10.237 3.905 14.143 0l28.28-28.28c3.905-3.905 3.905-10.237 0-14.143-3.905-3.905-10.237-3.905-14.143 0l-28.28 28.28c-3.905 3.906-3.905 10.238 0 14.143z" fill="#000000" data-original="#000000" class=""/><circle cx="355" cy="137" r="10" fill="#000000" data-original="#000000" class=""/><path d="m256 512c38.598 0 70-31.402 70-70v-73.483c48.756-25.78 80-76.362 80-132.517 0-23.534-5.299-46.068-15.75-66.979-2.469-4.941-8.478-6.943-13.416-4.474-4.94 2.469-6.943 8.476-4.474 13.416 9.051 18.109 13.64 37.635 13.64 58.037 0 49.791-29.164 95.842-74.297 117.32-3.484 1.658-5.703 5.172-5.703 9.03v69.65h-100v-69.65c0-3.858-2.219-7.372-5.703-9.03-46.942-22.339-76.073-70.275-74.213-122.121 2.445-67.899 59.736-124.056 127.712-125.181 21.173-.347 41.456 4.231 60.242 13.621 4.941 2.471 10.947.467 13.416-4.474 2.469-4.94.466-10.946-4.474-13.416-21.386-10.689-45.428-16.123-69.515-15.729-78.437 1.298-144.546 66.103-147.368 144.46-2.069 57.695 29.11 111.188 79.904 138.036v73.484c-.001 38.598 31.401 70 69.999 70zm0-20c-24.146 0-44.348-17.205-48.994-40.01h97.988c-4.646 22.805-24.848 40.01-48.994 40.01z" fill="#000000" data-original="#000000" class=""/></g></g></svg>