<svg width="444" height="444" viewBox="0 0 444 444" fill="none" xmlns="http://www.w3.org/2000/svg">
<g clip-path="url(#clip0_11_32)">
<path d="M122.18 206.22C99.0067 206.22 69.2333 205.853 32.86 205.12C29.0467 205.12 25.82 203.8 23.18 201.16C20.54 198.373 19.2933 195.073 19.44 191.26C19.44 189.94 19.5867 188.693 19.88 187.52C15.1867 148.947 13.2067 108.613 13.94 66.52C13.6467 65.2 13.5 63.8067 13.5 62.34C13.5 58.6733 14.82 55.52 17.46 52.88C20.2467 50.0933 23.5467 48.7733 27.36 48.92C43.64 49.0667 74.1467 49.14 118.88 49.14C122.693 49.14 125.92 50.46 128.56 53.1C131.2 55.74 132.52 58.9667 132.52 62.78C132.52 66.5933 131.2 69.82 128.56 72.46C125.92 75.1 122.693 76.42 118.88 76.42H41.22C41.22 88.3 41.3667 99.8133 41.66 110.96C56.18 111.253 79.8667 111.033 112.72 110.3C116.387 110.153 119.613 111.4 122.4 114.04C125.187 116.68 126.58 119.907 126.58 123.72C126.727 127.387 125.48 130.613 122.84 133.4C120.2 136.187 116.973 137.58 113.16 137.58C81.1867 138.313 57.7933 138.607 42.98 138.46C43.86 150.633 44.96 163.833 46.28 178.06C75.9067 178.647 101.207 178.94 122.18 178.94C125.993 178.94 129.22 180.26 131.86 182.9C134.5 185.54 135.82 188.767 135.82 192.58C135.82 196.393 134.5 199.62 131.86 202.26C129.22 204.9 125.993 206.22 122.18 206.22ZM160.101 207.54C159.954 207.54 158.341 207.32 155.261 206.88C153.941 206.733 152.914 206.66 152.181 206.66C148.661 206.66 145.654 205.487 143.161 203.14C140.814 200.647 139.641 197.64 139.641 194.12C139.641 190.6 140.814 187.667 143.161 185.32C145.654 182.827 148.661 181.58 152.181 181.58C153.794 181.58 155.774 181.727 158.121 182.02C158.267 182.02 158.854 182.093 159.881 182.24C160.907 182.24 161.714 182.313 162.301 182.46C163.474 182.607 164.354 182.607 164.941 182.46C166.554 179.967 167.874 176.887 168.901 173.22C170.954 165.887 172.347 155.84 173.081 143.08C174.254 127.533 174.181 110.153 172.861 90.94C172.714 89.3267 172.054 84.0467 170.881 75.1C170.441 71.14 170.147 68.28 170.001 66.52C169.854 65.0533 169.781 63.88 169.781 63C169.634 62.2667 169.634 61.5333 169.781 60.8C169.781 60.0667 169.854 59.3333 170.001 58.6C170.587 56.1067 171.834 53.98 173.741 52.22C174.767 51.34 175.867 50.6067 177.041 50.02C178.214 49.4333 179.094 49.14 179.681 49.14L180.781 48.92C181.367 48.7733 182.174 48.7 183.201 48.7C184.374 48.5533 185.914 48.48 187.821 48.48C190.754 48.3333 194.641 48.3333 199.481 48.48C207.107 48.6267 212.901 48.7733 216.861 48.92C218.621 48.92 221.407 49.0667 225.221 49.36L234.241 50.02H234.681C234.827 50.02 234.974 50.02 235.121 50.02C235.414 49.8733 235.927 49.7267 236.661 49.58C237.394 49.4333 238.274 49.2867 239.301 49.14C245.607 48.26 250.887 49.36 255.141 52.44C262.327 57.72 266.361 66.1533 267.241 77.74C267.534 80.9667 267.607 84.7067 267.461 88.96C267.461 89.6933 267.387 90.94 267.241 92.7C267.094 94.46 267.021 95.78 267.021 96.66V146.82C267.021 167.353 266.434 183.413 265.261 195C264.967 198.373 263.501 201.233 260.861 203.58C258.221 205.78 255.141 206.733 251.621 206.44C248.247 206.147 245.387 204.68 243.041 202.04C240.841 199.4 239.887 196.32 240.181 192.8C241.207 181.947 241.794 166.62 241.941 146.82V96.22C241.941 95.34 241.941 93.8733 241.941 91.82C242.087 89.7667 242.234 88.4467 242.381 87.86C242.527 84.6333 242.454 81.92 242.161 79.72C242.014 77.52 241.721 75.76 241.281 74.44C237.907 75.0267 235.267 75.2467 233.361 75.1C231.307 75.1 228.301 74.9533 224.341 74.66L215.541 74C211.874 73.8533 206.447 73.7067 199.261 73.56H196.181C197.207 81.92 197.794 87.1267 197.941 89.18C199.261 110.007 199.334 128.487 198.161 144.62C197.281 158.993 195.594 170.727 193.101 179.82C189.287 193.753 183.127 202.407 174.621 205.78C170.514 207.393 165.674 207.98 160.101 207.54Z" fill="#498BBA"/>
<path d="M123.18 404.22C100.007 404.22 70.2333 403.853 33.86 403.12C30.0467 403.12 26.82 401.8 24.18 399.16C21.54 396.373 20.2933 393.073 20.44 389.26C20.44 387.94 20.5867 386.693 20.88 385.52C16.1867 346.947 14.2067 306.613 14.94 264.52C14.6467 263.2 14.5 261.807 14.5 260.34C14.5 256.673 15.82 253.52 18.46 250.88C21.2467 248.093 24.5467 246.773 28.36 246.92C44.64 247.067 75.1467 247.14 119.88 247.14C123.693 247.14 126.92 248.46 129.56 251.1C132.2 253.74 133.52 256.967 133.52 260.78C133.52 264.593 132.2 267.82 129.56 270.46C126.92 273.1 123.693 274.42 119.88 274.42H42.22C42.22 286.3 42.3667 297.813 42.66 308.96C57.18 309.253 80.8667 309.033 113.72 308.3C117.387 308.153 120.613 309.4 123.4 312.04C126.187 314.68 127.58 317.907 127.58 321.72C127.727 325.387 126.48 328.613 123.84 331.4C121.2 334.187 117.973 335.58 114.16 335.58C82.1867 336.313 58.7933 336.607 43.98 336.46C44.86 348.633 45.96 361.833 47.28 376.06C76.9067 376.647 102.207 376.94 123.18 376.94C126.993 376.94 130.22 378.26 132.86 380.9C135.5 383.54 136.82 386.767 136.82 390.58C136.82 394.393 135.5 397.62 132.86 400.26C130.22 402.9 126.993 404.22 123.18 404.22ZM261.641 400.04C259.881 397.987 257.901 395.86 255.701 393.66L246.021 383.54C243.234 380.46 240.667 377.527 238.321 374.74C233.481 369.02 226.954 360.073 218.741 347.9L208.841 333.82L187.061 352.52C187.501 365.573 188.161 377.893 189.041 389.48C189.334 393.293 188.234 396.667 185.741 399.6C183.247 402.387 180.094 403.927 176.281 404.22C172.614 404.513 169.314 403.413 166.381 400.92C163.594 398.427 162.054 395.347 161.761 391.68C160.881 379.947 160.147 367.333 159.561 353.84C157.361 349.733 157.287 345.553 159.341 341.3C158.901 324.727 158.681 297.447 158.681 259.46C158.681 255.647 160.001 252.42 162.641 249.78C165.281 247.14 168.507 245.82 172.321 245.82C176.134 245.82 179.361 247.14 182.001 249.78C184.641 252.42 185.961 255.647 185.961 259.46C185.961 287.913 186.034 307.2 186.181 317.32C204.514 301.187 227.101 279.187 253.941 251.32C256.581 248.533 259.734 247.067 263.401 246.92C267.214 246.773 270.514 248.02 273.301 250.66C276.087 253.153 277.554 256.307 277.701 260.12C277.847 263.787 276.674 267.013 274.181 269.8C256.434 287.987 241.401 303.02 229.081 314.9C232.161 319.007 236.267 324.873 241.401 332.5C249.174 343.793 255.187 352.007 259.441 357.14C261.787 359.927 264.354 362.787 267.141 365.72L276.161 375.18L284.081 383.32C286.134 385.52 286.794 388.307 286.061 391.68C285.474 395.053 284.227 398.06 282.321 400.7C280.414 403.193 277.114 404.367 272.421 404.22C267.874 404.073 264.281 402.68 261.641 400.04ZM376.158 403.56C364.718 405.173 354.084 404.733 344.258 402.24C334.431 399.6 326.071 395.42 319.178 389.7C312.284 383.833 306.564 377.087 302.018 369.46C297.471 361.687 294.318 353.327 292.558 344.38C291.238 337.34 290.578 330.667 290.578 324.36C290.578 317.907 291.531 311.013 293.438 303.68C295.491 296.347 298.204 289.453 301.578 283C305.098 276.547 309.644 270.533 315.218 264.96C320.791 259.24 327.171 254.4 334.358 250.44C335.678 248.24 337.584 246.553 340.078 245.38C342.571 244.207 345.211 243.767 347.998 244.06L351.518 244.5C352.398 244.353 353.424 244.133 354.598 243.84C355.771 243.547 356.651 243.327 357.238 243.18C357.971 243.033 358.558 242.887 358.998 242.74C364.571 241.127 369.338 242.52 373.298 246.92C376.524 247.213 379.238 247.727 381.438 248.46C386.278 249.78 390.604 252.053 394.418 255.28C397.938 258.213 402.924 263.127 409.378 270.02C417.298 278.527 422.944 285.933 426.318 292.24C430.718 300.453 433.651 309.033 435.118 317.98C436.731 326.927 436.584 336.167 434.678 345.7C432.771 355.087 429.471 363.887 424.778 372.1C420.231 380.167 413.704 387.06 405.198 392.78C396.838 398.353 387.158 401.947 376.158 403.56ZM372.198 376.28C379.971 375.253 386.791 372.247 392.658 367.26C398.524 362.273 402.778 356.407 405.418 349.66C408.058 342.767 409.158 335.14 408.718 326.78C408.424 320.033 406.224 312.92 402.118 305.44C399.624 300.747 395.298 295.1 389.138 288.5C381.218 279.993 376.084 275.447 373.738 274.86C372.564 274.42 369.631 273.98 364.938 273.54L353.058 272.44C351.004 273.027 349.171 273.76 347.558 274.64C335.971 280.8 327.684 290.113 322.698 302.58C317.711 315.047 316.611 327.073 319.398 338.66C322.038 351.42 327.904 361.393 336.998 368.58C346.091 375.767 357.824 378.333 372.198 376.28Z" fill="#49BA6E"/>
<path d="M399.964 121.218C399.513 119.565 398.198 118.288 396.534 117.885L359.948 109.035L386.617 58.3278C387.693 56.2791 387.127 53.7573 385.277 52.3699C383.438 50.9903 380.846 51.1469 379.186 52.7569L365.502 66.2634L303.298 126.597C302.069 127.792 301.585 129.559 302.036 131.208C302.487 132.861 303.802 134.138 305.466 134.54L342.052 143.39L315.383 194.098C314.307 196.147 314.873 198.668 316.723 200.056C318.573 201.436 321.149 201.28 322.814 199.669L336.425 186.467L398.702 125.828C399.931 124.633 400.415 122.866 399.964 121.218V121.218Z" fill="#FED843"/>
<path d="M399.964 121.218C399.513 119.565 398.198 118.288 396.534 117.885L359.948 109.035L386.617 58.3278C387.693 56.2791 387.127 53.7573 385.277 52.3699C383.438 50.9904 380.846 51.1469 379.186 52.7569L365.502 66.2634L336.425 186.467L398.702 125.828C399.931 124.633 400.415 122.866 399.964 121.218V121.218Z" fill="#FABE2C"/>
</g>
<defs>
<clipPath id="clip0_11_32">
<rect width="444" height="444" fill="white"/>
</clipPath>
</defs>
</svg>
